<svg width="260" height="260" viewBox="0 0 260 260" fill="none" xmlns="http://www.w3.org/2000/svg">
<path d="M130 21.6666L238.336 130H205.836V238.334H75.8352C63.869 238.334 54.1685 228.634 54.1685 216.668V130H21.6685L130 21.6666Z" fill="url(#paint0_linear_2_26)"/>
<path d="M97.5 195H249.167V216.667C249.167 228.633 239.466 238.333 227.5 238.333H75.8333L76.9153 238.279C88.4465 237.703 97.5 228.186 97.5 216.64V195Z" fill="url(#paint1_linear_2_26)"/>
<path fill-rule="evenodd" clip-rule="evenodd" d="M95.9135 109.919C93.7981 107.804 90.3685 107.804 88.2532 109.919L77.4199 120.753C75.3045 122.868 75.3045 126.298 77.4199 128.414C79.5352 130.529 82.9648 130.529 85.0801 128.414L92.0833 121.41L99.0865 128.414C101.202 130.529 104.631 130.529 106.747 128.414L113.75 121.41L120.753 128.414C122.868 130.529 126.298 130.529 128.414 128.414L135.417 121.41L142.419 128.414C144.535 130.529 147.965 130.529 150.081 128.414L157.083 121.41L164.086 128.414C166.202 130.529 169.632 130.529 171.747 128.414L182.581 117.581C184.695 115.465 184.695 112.035 182.581 109.919C180.465 107.804 177.035 107.804 174.919 109.919L167.917 116.923L160.914 109.919C158.798 107.804 155.368 107.804 153.253 109.919L146.25 116.923L139.247 109.919C137.132 107.804 133.702 107.804 131.586 109.919L124.583 116.923L117.581 109.919C115.465 107.804 112.035 107.804 109.919 109.919L102.917 116.923L95.9135 109.919ZM102.917 160.256L95.9135 153.253C93.7981 151.138 90.3685 151.138 88.2532 153.253L77.4199 164.086C75.3045 166.202 75.3045 169.632 77.4199 171.747C79.5352 173.862 82.9648 173.862 85.0801 171.747L92.0833 164.744L99.0865 171.747C101.202 173.862 104.631 173.862 106.747 171.747L113.75 164.744L120.753 171.747C122.868 173.862 126.298 173.862 128.414 171.747L135.417 164.744L142.419 171.747C144.535 173.862 147.965 173.862 150.081 171.747L157.083 164.744L164.086 171.747C166.202 173.862 169.632 173.862 171.747 171.747L182.581 160.914C184.695 158.798 184.695 155.368 182.581 153.253C180.465 151.138 177.035 151.138 174.919 153.253L167.917 160.256L160.914 153.253C158.798 151.138 155.368 151.138 153.253 153.253L146.25 160.256L139.247 153.253C137.132 151.138 133.702 151.138 131.586 153.253L124.583 160.256L117.581 153.253C115.465 151.138 112.035 151.138 109.919 153.253L102.917 160.256Z" fill="#8D57FF"/>
<defs>
<linearGradient id="paint0_linear_2_26" x1="122.775" y1="21.5172" x2="122.775" y2="238.483" gradientUnits="userSpaceOnUse">
<stop stop-color="#DDCDFF"/>
<stop offset="1" stop-color="#D3BFFF"/>
</linearGradient>
<linearGradient id="paint1_linear_2_26" x1="158.885" y1="195.448" x2="158.885" y2="238.483" gradientUnits="userSpaceOnUse">
<stop stop-color="#B998FF"/>
<stop offset="1" stop-color="#9C6EFF"/>
</linearGradient>
</defs>
</svg>
