<svg width="640" height="640" viewBox="0 0 640 640" fill="none" xmlns="http://www.w3.org/2000/svg">
<g filter="url(#filter0_d_2_14)">
<path d="M320 53.3334L586.672 320H506.672V480H613.333V533.333C613.333 562.789 589.456 586.667 560 586.667H506.672V586.669H186.671C157.216 586.669 133.338 562.792 133.338 533.336V320H53.3379L320 53.3334Z" fill="#8D57FF"/>
</g>
<path d="M320 53.3334L586.672 320H506.672V586.669H186.671C157.216 586.669 133.338 562.792 133.338 533.336V320H53.3379L320 53.3334Z" fill="url(#paint0_linear_2_14)"/>
<path d="M240 480H613.333V533.333C613.333 562.789 589.456 586.667 560 586.667H186.667L189.33 586.533C217.714 585.115 240 561.688 240 533.267V480Z" fill="url(#paint1_linear_2_14)"/>
<path fill-rule="evenodd" clip-rule="evenodd" d="M236.095 270.571C230.888 265.365 222.446 265.365 217.239 270.571L190.572 297.237C185.365 302.445 185.365 310.888 190.572 316.096C195.779 321.301 204.221 321.301 209.428 316.096L226.667 298.856L243.905 316.096C249.112 321.301 257.554 321.301 262.761 316.096L280 298.856L297.237 316.096C302.445 321.301 310.888 321.301 316.096 316.096L333.333 298.856L350.571 316.096C355.779 321.301 364.221 321.301 369.429 316.096L386.667 298.856L403.904 316.096C409.112 321.301 417.555 321.301 422.763 316.096L449.429 289.429C454.635 284.221 454.635 275.779 449.429 270.571C444.221 265.365 435.779 265.365 430.571 270.571L413.333 287.811L396.096 270.571C390.888 265.365 382.445 265.365 377.237 270.571L360 287.811L342.763 270.571C337.555 265.365 329.112 265.365 323.904 270.571L306.667 287.811L289.429 270.571C284.221 265.365 275.779 265.365 270.571 270.571L253.333 287.811L236.095 270.571ZM253.333 394.477L236.095 377.237C230.888 372.032 222.446 372.032 217.239 377.237L190.572 403.904C185.365 409.112 185.365 417.555 190.572 422.763C195.779 427.968 204.221 427.968 209.428 422.763L226.667 405.523L243.905 422.763C249.112 427.968 257.554 427.968 262.761 422.763L280 405.523L297.237 422.763C302.445 427.968 310.888 427.968 316.096 422.763L333.333 405.523L350.571 422.763C355.779 427.968 364.221 427.968 369.429 422.763L386.667 405.523L403.904 422.763C409.112 427.968 417.555 427.968 422.763 422.763L449.429 396.096C454.635 390.888 454.635 382.445 449.429 377.237C444.221 372.032 435.779 372.032 430.571 377.237L413.333 394.477L396.096 377.237C390.888 372.032 382.445 372.032 377.237 377.237L360 394.477L342.763 377.237C337.555 372.032 329.112 372.032 323.904 377.237L306.667 394.477L289.429 377.237C284.221 372.032 275.779 372.032 270.571 377.237L253.333 394.477Z" fill="#8D57FF"/>
<defs>
<filter id="filter0_d_2_14" x="42.7924" y="44.5455" width="588.117" height="561.457" filterUnits="userSpaceOnUse" color-interpolation-filters="sRGB">
<feFlood flood-opacity="0" result="BackgroundImageFix"/>
<feColorMatrix in="SourceAlpha" type="matrix" values="0 0 0 0 0 0 0 0 0 0 0 0 0 0 0 0 0 0 127 0" result="hardAlpha"/>
<feOffset dx="3.51515" dy="5.27273"/>
<feGaussianBlur stdDeviation="7.0303"/>
<feComposite in2="hardAlpha" operator="out"/>
<feColorMatrix type="matrix" values="0 0 0 0 0.108333 0 0 0 0 0.108333 0 0 0 0 0.108333 0 0 0 0.2 0"/>
<feBlend mode="normal" in2="BackgroundImageFix" result="effect1_dropShadow_2_14"/>
<feBlend mode="normal" in="SourceGraphic" in2="effect1_dropShadow_2_14" result="shape"/>
</filter>
<linearGradient id="paint0_linear_2_14" x1="302.216" y1="52.9656" x2="302.216" y2="587.035" gradientUnits="userSpaceOnUse">
<stop stop-color="#DDCDFF"/>
<stop offset="1" stop-color="#D3BFFF"/>
</linearGradient>
<linearGradient id="paint1_linear_2_14" x1="391.101" y1="481.103" x2="391.101" y2="587.034" gradientUnits="userSpaceOnUse">
<stop stop-color="#B998FF"/>
<stop offset="1" stop-color="#9C6EFF"/>
</linearGradient>
</defs>
</svg>
