<svg width="964" height="964" viewBox="0 0 964 964" fill="none" xmlns="http://www.w3.org/2000/svg">
<g filter="url(#filter0_d_1_138)">
<path fill-rule="evenodd" clip-rule="evenodd" d="M272.865 593H309.511C309.537 592.348 309.644 591.685 309.841 591.022L325.888 537.008C326.815 533.888 328.213 530.927 330.033 528.229L347.836 501.831C359.389 484.701 351.474 461.275 331.899 454.662C313.537 448.459 294.006 460.26 290.958 479.4L272.865 593Z" fill="white"/>
<path fill-rule="evenodd" clip-rule="evenodd" d="M338 332.875C370.93 330.812 397 303.45 397 270C397 235.206 368.794 207 334 207C299.54 207 271.542 234.667 271.008 269H271V270V333H334H338V332.875Z" fill="#00B86A"/>
<path fill-rule="evenodd" clip-rule="evenodd" d="M338 383.875C370.93 381.812 397 354.45 397 321C397 286.206 368.794 258 334 258C299.54 258 271.542 285.667 271.008 320H271V321V384H334H338V383.875Z" fill="#F55135"/>
<path fill-rule="evenodd" clip-rule="evenodd" d="M338 434.875C370.93 432.812 397 405.45 397 372C397 337.206 368.794 309 334 309C299.54 309 271.542 336.667 271.008 371H271V372V435H334H338V434.875Z" fill="#FED200"/>
<path fill-rule="evenodd" clip-rule="evenodd" d="M284.519 486C296.057 471.382 313.933 462 334 462C347.823 462 360.606 466.452 370.994 474C386.754 462.549 397 443.971 397 423C397 388.206 368.794 360 334 360C299.54 360 271.542 387.667 271.008 422H271V423V486H284.519Z" fill="#00B86A"/>
<path fill-rule="evenodd" clip-rule="evenodd" d="M277.5 537C281.09 537 284 534.09 284 530.5V525V524.004C284 524.002 284.002 524 284.004 524V524C284.006 524 284.008 523.998 284.008 523.996C284.544 489.665 312.541 462 347 462C362.667 462 376.998 467.719 388.02 477.183C391.426 480.107 397 478.489 397 474V474C397 439.206 368.794 411 334 411C299.541 411 271.544 438.665 271.008 472.996C271.008 472.998 271.006 473 271.004 473V473C271.002 473 271 473.002 271 473.004V474V530.5C271 534.09 273.91 537 277.5 537V537Z" fill="#4050D9"/>
<path fill-rule="evenodd" clip-rule="evenodd" d="M482.88 111.969C494.556 112.519 505.313 119.391 507.767 130.82C510.513 143.603 511.444 159.163 510.014 175.788C506.437 217.35 489.452 249.83 472.076 248.335C454.701 246.839 443.514 211.935 447.091 170.374C448.498 154.015 451.983 139.064 456.752 127.037C460.857 116.681 471.752 111.446 482.88 111.969V111.969Z" fill="#D9D9D9"/>
<path d="M593.478 214.888C594.876 220.353 589.319 224.264 584.07 222.198L549.412 208.556C548.479 208.189 547.485 208 546.482 208H312C312 164.922 371.546 130 445 130C521.125 130 583.121 174.402 593.478 214.888Z" fill="#4050D9"/>
<path d="M403.667 72.1331L464.196 193.167L384.577 212.783L403.667 72.1331Z" fill="#FED200"/>
<rect x="446" y="283" width="224" height="112" rx="56" fill="white"/>
<rect x="334" y="178" width="244" height="216" rx="99" fill="white"/>
<rect x="338" y="245" width="174" height="327" fill="white"/>
<mask id="mask0_1_138" style="mask-type:alpha" maskUnits="userSpaceOnUse" x="334" y="178" width="244" height="394">
<rect x="334" y="178" width="244" height="216" rx="99" fill="white"/>
<rect x="338" y="245" width="174" height="327" fill="white"/>
</mask>
<g mask="url(#mask0_1_138)">
<ellipse cx="527.56" cy="483.224" rx="86.2699" ry="143.422" transform="rotate(60.401 527.56 483.224)" fill="#E5E4E6"/>
</g>
<mask id="mask1_1_138" style="mask-type:alpha" maskUnits="userSpaceOnUse" x="334" y="178" width="336" height="394">
<rect x="446" y="283" width="224" height="112" rx="56" fill="white"/>
<rect x="334" y="178" width="244" height="216" rx="99" fill="white"/>
<rect x="338" y="245" width="174" height="327" fill="white"/>
</mask>
<g mask="url(#mask1_1_138)">
<ellipse cx="451" cy="179" rx="124" ry="54" fill="#FED200"/>
</g>
<path fill-rule="evenodd" clip-rule="evenodd" d="M295.652 170.521C291.554 156.323 302.682 144.082 317.284 141.812L321.069 141.224C329.758 139.873 338.755 142.029 345.006 148.214C352.771 155.899 360.49 165.44 367.47 176.358C378.318 193.328 385.398 210.521 388.166 224.823C388.26 225.308 387.939 225.771 387.454 225.863V225.863C380.407 227.202 374.462 231.906 371.54 238.457L369.15 243.817C368.095 246.182 366.131 248.021 363.702 248.919V248.919C359.521 250.464 354.412 252.888 350.75 250.346C338.593 241.902 325.472 227.916 314.259 210.375C305.511 196.692 299.214 182.863 295.652 170.521ZM305.477 127.719C304.86 127.824 304.992 128.347 305.611 128.251C306.243 128.152 306.202 127.6 305.57 127.704L305.477 127.719Z" fill="#D9D9D9"/>
<path fill-rule="evenodd" clip-rule="evenodd" d="M324.93 203.553C316.722 190.714 312.116 177.661 311.769 168.154C311.568 162.652 316.368 158.963 321.809 158.117L325.555 157.535C328.986 157.002 332.544 157.534 335.375 159.545C342.534 164.63 350.215 172.882 356.799 183.18C364.385 195.046 368.894 207.095 369.808 216.358C370.448 222.848 364.501 227 357.979 227H351.249C347.894 227 344.586 225.989 342.045 223.798C336.191 218.75 330.208 211.809 324.93 203.553Z" fill="#888888"/>
<circle cx="460" cy="290" r="21" fill="#888888"/>
<circle cx="460" cy="290" r="10" fill="white"/>
<circle cx="660.5" cy="635.5" r="35.5" fill="white"/>
<rect x="312" y="473" width="349" height="426" fill="#35434C"/>
<rect x="334" y="500" width="305" height="372" fill="#4050D9"/>
<rect x="370" y="544" width="233" height="284" fill="#F5F5F5"/>
<path d="M485 432L405 512H565L485 432Z" fill="#FED200"/>
<circle cx="484.5" cy="461.5" r="8" fill="white"/>
<rect x="407" y="572" width="162" height="12" rx="6" fill="#888888"/>
<rect x="407" y="596" width="162" height="12" rx="6" fill="#888888"/>
<rect x="407" y="620" width="162" height="12" rx="6" fill="#888888"/>
<rect x="407" y="644" width="162" height="12" rx="6" fill="#888888"/>
<rect x="407" y="668" width="162" height="12" rx="6" fill="#888888"/>
<rect x="407" y="692" width="162" height="12" rx="6" fill="#888888"/>
<rect x="407" y="716" width="162" height="12" rx="6" fill="#888888"/>
<rect x="485" y="740" width="84" height="12" rx="6" fill="#888888"/>
<rect x="485" y="764" width="84" height="12" rx="6" fill="#888888"/>
<rect x="485" y="788" width="84" height="12" rx="6" fill="#888888"/>
<circle cx="437" cy="770" r="30" fill="#888888"/>
<path fill-rule="evenodd" clip-rule="evenodd" d="M272.865 593L269.399 614.76C267.492 626.735 272.517 638.759 282.377 645.816L308.935 664.822C314.366 668.71 320.879 670.8 327.558 670.8H328.307C333.95 670.8 339.722 670.622 344.944 668.483C373.562 656.759 373.387 613.923 344.222 603.205C339.426 601.442 334.22 601.3 329.11 601.3H317.509C312.851 601.3 309.335 597.395 309.511 593H272.865Z" fill="white"/>
<mask id="mask2_1_138" style="mask-type:alpha" maskUnits="userSpaceOnUse" x="269" y="593" width="98" height="78">
<path fill-rule="evenodd" clip-rule="evenodd" d="M272.865 593L269.399 614.76C267.492 626.735 272.517 638.759 282.377 645.816L308.935 664.822C314.366 668.71 320.879 670.8 327.558 670.8H328.307C333.95 670.8 339.722 670.622 344.944 668.483C373.562 656.759 373.387 613.923 344.222 603.205C339.426 601.442 334.22 601.3 329.11 601.3H317.509C312.851 601.3 309.335 597.395 309.511 593H272.865Z" fill="white"/>
</mask>
<g mask="url(#mask2_1_138)">
<rect x="334.049" y="594" width="52" height="87" transform="rotate(5.97039 334.049 594)" fill="#35434C"/>
</g>
<ellipse cx="664.5" cy="635.5" rx="25.5" ry="35.5" fill="#35434C"/>
</g>
<defs>
<filter id="filter0_d_1_138" x="265" y="68.1331" width="435" height="834.867" filterUnits="userSpaceOnUse" color-interpolation-filters="sRGB">
<feFlood flood-opacity="0" result="BackgroundImageFix"/>
<feColorMatrix in="SourceAlpha" type="matrix" values="0 0 0 0 0 0 0 0 0 0 0 0 0 0 0 0 0 0 127 0" result="hardAlpha"/>
<feOffset/>
<feGaussianBlur stdDeviation="2"/>
<feComposite in2="hardAlpha" operator="out"/>
<feColorMatrix type="matrix" values="0 0 0 0 0 0 0 0 0 0 0 0 0 0 0 0 0 0 1 0"/>
<feBlend mode="normal" in2="BackgroundImageFix" result="effect1_dropShadow_1_138"/>
<feBlend mode="normal" in="SourceGraphic" in2="effect1_dropShadow_1_138" result="shape"/>
</filter>
</defs>
</svg>
