<svg width="24" height="24" viewBox="0 0 24 24" fill="none" xmlns="http://www.w3.org/2000/svg">
<path d="M12 2L22.0002 12H19.0002V22.0001H7.00017C5.8956 22.0001 5.00017 21.1047 5.00017 20.0001V12H2.00017L12 2Z" fill="#FFD966"/>
<path d="M12 2L22.0002 12H19.0002V22.0001H7.00017C5.8956 22.0001 5.00017 21.1047 5.00017 20.0001V12H2.00017L12 2Z" fill="url(#paint0_linear_1479_29187)" fill-opacity="0.16"/>
<path d="M9 18H23V20C23 21.1046 22.1046 22 21 22H7L7.09988 21.995C8.16429 21.9418 9 21.0633 9 19.9975V18Z" fill="#FFAA00"/>
<path d="M9 18H23V20C23 21.1046 22.1046 22 21 22H7L7.09988 21.995C8.16429 21.9418 9 21.0633 9 19.9975V18Z" fill="url(#paint1_linear_1479_29187)"/>
<path fill-rule="evenodd" clip-rule="evenodd" d="M8.85355 10.1464C8.65829 9.95118 8.34171 9.95118 8.14645 10.1464L7.14645 11.1464C6.95118 11.3417 6.95118 11.6583 7.14645 11.8536C7.34171 12.0488 7.65829 12.0488 7.85355 11.8536L8.5 11.2071L9.14645 11.8536C9.34171 12.0488 9.65829 12.0488 9.85355 11.8536L10.5 11.2071L11.1464 11.8536C11.3417 12.0488 11.6583 12.0488 11.8536 11.8536L12.5 11.2071L13.1464 11.8536C13.3417 12.0488 13.6583 12.0488 13.8536 11.8536L14.5 11.2071L15.1464 11.8536C15.3417 12.0488 15.6583 12.0488 15.8536 11.8536L16.8536 10.8536C17.0488 10.6583 17.0488 10.3417 16.8536 10.1464C16.6583 9.95118 16.3417 9.95118 16.1464 10.1464L15.5 10.7929L14.8536 10.1464C14.6583 9.95118 14.3417 9.95118 14.1464 10.1464L13.5 10.7929L12.8536 10.1464C12.6583 9.95118 12.3417 9.95118 12.1464 10.1464L11.5 10.7929L10.8536 10.1464C10.6583 9.95118 10.3417 9.95118 10.1464 10.1464L9.5 10.7929L8.85355 10.1464ZM9.5 14.7929L8.85355 14.1464C8.65829 13.9512 8.34171 13.9512 8.14645 14.1464L7.14645 15.1464C6.95118 15.3417 6.95118 15.6583 7.14645 15.8536C7.34171 16.0488 7.65829 16.0488 7.85355 15.8536L8.5 15.2071L9.14645 15.8536C9.34171 16.0488 9.65829 16.0488 9.85355 15.8536L10.5 15.2071L11.1464 15.8536C11.3417 16.0488 11.6583 16.0488 11.8536 15.8536L12.5 15.2071L13.1464 15.8536C13.3417 16.0488 13.6583 16.0488 13.8536 15.8536L14.5 15.2071L15.1464 15.8536C15.3417 16.0488 15.6583 16.0488 15.8536 15.8536L16.8536 14.8536C17.0488 14.6583 17.0488 14.3417 16.8536 14.1464C16.6583 13.9512 16.3417 13.9512 16.1464 14.1464L15.5 14.7929L14.8536 14.1464C14.6583 13.9512 14.3417 13.9512 14.1464 14.1464L13.5 14.7929L12.8536 14.1464C12.6583 13.9512 12.3417 13.9512 12.1464 14.1464L11.5 14.7929L10.8536 14.1464C10.6583 13.9512 10.3417 13.9512 10.1464 14.1464L9.5 14.7929Z" fill="#CC6600"/>
<g style="mix-blend-mode:hue">
<mask id="mask0_1479_29187" style="mask-type:alpha" maskUnits="userSpaceOnUse" x="2" y="2" width="21" height="20">
<path fill-rule="evenodd" clip-rule="evenodd" d="M22.0002 12L12 2L2.00017 12H5.00017V20.0001C5.00017 21.1047 5.8956 22.0001 7.00017 22.0001H19.0002V22H21C22.1046 22 23 21.1046 23 20V18H19.0002V12H22.0002Z" fill="#FFAA00"/>
</mask>
<g mask="url(#mask0_1479_29187)">
<rect x="-37" y="-28" width="97" height="83" fill="#290080"/>
</g>
</g>
<defs>
<linearGradient id="paint0_linear_1479_29187" x1="11.3331" y1="0.666921" x2="11.3331" y2="23.3336" gradientUnits="userSpaceOnUse">
<stop stop-color="#FF6A00" stop-opacity="0"/>
<stop offset="1" stop-color="#FF6A00"/>
</linearGradient>
<linearGradient id="paint1_linear_1479_29187" x1="14.6663" y1="17.6667" x2="14.6663" y2="21.6667" gradientUnits="userSpaceOnUse">
<stop stop-color="#FF6A00" stop-opacity="0"/>
<stop offset="1" stop-color="#FF6A00"/>
</linearGradient>
</defs>
</svg>
